<?xml version="1.0" encoding="utf-8"?>
<!-- Generator: Adobe Illustrator 19.0.0, SVG Export Plug-In . SVG Version: 6.00 Build 0)  -->
<svg version="1.1" id="图层_1" xmlns="http://www.w3.org/2000/svg" xmlns:xlink="http://www.w3.org/1999/xlink" x="0px" y="0px"
	 viewBox="6 -6 60 60" style="enable-background:new 6 -6 60 60;" xml:space="preserve">
<style type="text/css">
	.st0{fill:#707070;}
</style>
<path id="XMLID_154_" class="st0" d="M41.4,30.7C45.8,28.6,49,24.1,49,19c-0.1-7.2-6-13-13-13v2c6,0,11,5,11,11.1S42,30,36,30v2
	c14,0,18.2,12.8,18.2,14.4c0,1.1-0.4,1.6-1.3,1.6s-17,0-17,0v2c0,0,15.6,0,17,0c1.8,0,3.1-1.2,3.1-3.5
	C56.1,44.9,53.6,34.3,41.4,30.7z"/>
<path id="XMLID_152_" class="st0" d="M30.7,30.7c-4.4-2.1-7.6-6.6-7.6-11.7C23.1,11.8,29,6,36,6v2c-6,0-11,5-11,11.1S30,30,36,30v2
	c-14,0-18.2,12.8-18.2,14.4c0,1.1,0.5,1.6,1.3,1.6c0.8,0,16.9,0,16.9,0v2c0,0-15.4,0-16.9,0c-1.8,0-3.1-1.2-3.1-3.5
	C16,44.9,18.5,34.3,30.7,30.7z"/>
</svg>
