<?xml version="1.0" encoding="utf-8"?>
<!-- Generator: Adobe Illustrator 19.0.0, SVG Export Plug-In . SVG Version: 6.00 Build 0)  -->
<svg version="1.1" id="图层_1" xmlns="http://www.w3.org/2000/svg" xmlns:xlink="http://www.w3.org/1999/xlink" x="0px" y="0px"
	 viewBox="6 -6 60 60" style="enable-background:new 6 -6 60 60;" xml:space="preserve">
<style type="text/css">
	.st0{fill:#FF8200;}
</style>
<path id="XMLID_564_" class="st0" d="M59.7,27.3L38.3,7c0,0-0.8-0.9-2.3-1l0,0h-0.1l0,0c-1.5,0-2.3,1-2.3,1L12.3,27.3
	c-1.1,1-0.3,2.7,1.2,2.7c0.6,0,1.5,0,1.5,0l0,0c1.1,0,2,0.9,2,2l0,0l0,0l0,0v14.1c0,1.9,1.4,3.9,3.2,3.9H29l0,0c2,0,4-1.8,4-4v-8
	l0,0l0,0l0,0c0-1.1,0.9-2,2-2l0,0h0.9H36h0.9l0,0c1.1,0,2,0.9,2,2l0,0l0,0l0,0v8c0,2.2,2,4,4,4l0,0h8.7c1.8,0,3.3-2,3.3-3.9V32l0,0
	l0,0l0,0c0-1.1,0.9-2,2-2l0,0c0,0,0.9,0,1.5,0C60,30,60.7,28.3,59.7,27.3z"/>
</svg>
