<?xml version="1.0" encoding="utf-8"?>
<!-- Generator: Adobe Illustrator 19.0.0, SVG Export Plug-In . SVG Version: 6.00 Build 0)  -->
<svg version="1.1" id="图层_1" xmlns="http://www.w3.org/2000/svg" xmlns:xlink="http://www.w3.org/1999/xlink" x="0px" y="0px"
	 viewBox="0 0 44 44" style="enable-background:new 0 0 44 44;" xml:space="preserve">
<style type="text/css">
	.st0{fill-rule:evenodd;clip-rule:evenodd;fill:#F26D5F;}
	.st1{fill-rule:evenodd;clip-rule:evenodd;fill:#707070;}
	.st2{fill:#929292;}
	.st3{fill-rule:evenodd;clip-rule:evenodd;fill:#929292;}
	.st4{fill-rule:evenodd;clip-rule:evenodd;fill:#FF8200;}
	.st5{fill-rule:evenodd;clip-rule:evenodd;fill:#D55042;}
	.st6{fill:#AC2C1E;}
	.st7{fill:#FFFFFF;}
	.st8{opacity:0.6;}
	.st9{fill-rule:evenodd;clip-rule:evenodd;fill:#FA9C22;}
	.st10{fill:#B14B00;}
	.st11{fill:url(#XMLID_573_);}
</style>
<g id="XMLID_210_">
	<path id="XMLID_211_" class="st0" d="M-82,15c-0.1,14.3-15.3,25.8-21.9,25.8c-6.7,0-22-11.6-22-26c0,0,0-0.3,0-0.5
		c0-6.6,5.7-11.6,12.4-11.6c4.1,0,7.6,1.9,9.6,4.9c2.1-3,5.6-4.9,9.6-4.9c6.6,0,12.3,5,12.3,11.6C-82,14.8-82,15-82,15z"/>
</g>
<g id="XMLID_265_">
	<path id="XMLID_266_" class="st1" d="M-17,15.8c0,13.8-16.1,25-22,25c-4.9,0-22-11.2-22-25c0-0.8,0-1.4,0-1.5
		C-61,8-55.9,2.8-49.5,2.8c4.7,0,8.7,2.8,10.5,6.8c1.8-4,5.8-6.8,10.5-6.8C-22.1,2.8-17,8-17,14.3C-17,14.5-17,15.1-17,15.8z
		 M-19,14.3c0-5.2-4.3-9.5-9.5-9.5c-5.6,0-8.4,5-8.4,5s-0.7,1.6-2.1,1.6s-2.1-1.6-2.1-1.6s-2.9-5-8.4-5c-5.2,0-9.5,4.3-9.5,9.5
		c0,0.2,0,0.7,0,1c0,12.4,15.5,23.5,20,23.5c5.4,0,20-11.1,20-23.5C-19,15-19,14.6-19,14.3z"/>
</g>
<path id="XMLID_373_" class="st1" d="M37,30c-2.3,0-4.3,1.1-5.5,2.7l-12.2-7c0.5-1.1,0.7-2.4,0.7-3.7s-0.3-2.6-0.7-3.7l12.2-7
	c1.3,1.7,3.3,2.7,5.5,2.7c3.9,0,7-3.1,7-7c0-3.9-3.1-7-7-7c-3.9,0-7,3.1-7,7c0,0.9,0.2,1.7,0.5,2.5l-12.1,7C16.6,13.8,13.5,12,10,12
	C4.5,12,0,16.5,0,22c0,5.5,4.5,10,10,10c3.5,0,6.6-1.8,8.4-4.5l12.1,7C30.2,35.3,30,36.1,30,37c0,3.9,3.1,7,7,7c3.9,0,7-3.1,7-7
	C44,33.1,40.9,30,37,30z M37,2c2.8,0,5,2.2,5,5c0,2.8-2.2,5-5,5c-2.8,0-5-2.2-5-5C32,4.2,34.2,2,37,2z M10,30c-4.4,0-8-3.6-8-8
	s3.6-8,8-8s8,3.6,8,8S14.4,30,10,30z M37,42c-2.8,0-5-2.2-5-5c0-2.8,2.2-5,5-5c2.8,0,5,2.2,5,5C42,39.8,39.8,42,37,42z"/>
<path id="XMLID_513_" class="st2" d="M-105.9,71.9c1.8-1.6,2.9-3.9,2.9-6.5c0-5-4-9-9-9s-9,4-9,9c0,2.6,1.1,4.9,3,6.5
	c-3.4,2-5.7,5.6-5.9,9.7c0,1.9,1,2.4,3,2.4h9h9c1.9,0,3-0.5,3-2.4C-100.2,77.4-102.5,73.9-105.9,71.9z M-112,82h-10
	c0-6,5.3-8.9,5.3-8.9s0.9-0.4,0.9-1.3s-0.9-1.4-0.9-1.4s-2.3-1.4-2.3-5.1c0-3.9,3-7,7-7s7,3.1,7,7c0,3.7-2.3,5.1-2.3,5.1
	s-0.9,0.5-0.9,1.4s0.9,1.3,0.9,1.3S-102,76-102,82H-112z"/>
<g id="XMLID_615_">
	<path id="XMLID_616_" class="st3" d="M-65,85c-7.7,0-14-6.3-14-14s6.3-14,14-14s14,6.3,14,14S-57.3,85-65,85z M-65,59
		c-6.6,0-12,5.4-12,12s5.4,12,12,12s12-5.4,12-12S-58.4,59-65,59z M-64,69.4V70h4c0.6,0,1,0.4,1,1s-0.4,1-1,1h-4v2h3
		c0.6,0,1,0.4,1,1s-0.4,1-1,1h-3v3c0,0.6-0.4,1-1,1s-1-0.4-1-1v-3h-3c-0.6,0-1-0.4-1-1s0.4-1,1-1h3v-2h-4c-0.6,0-1-0.4-1-1
		s0.4-1,1-1h4v-0.6l-4.7-4.7c-0.4-0.4-0.4-1,0-1.4c0.4-0.4,1-0.4,1.4,0l4.3,4.3l4.3-4.3c0.4-0.4,1-0.4,1.4,0c0.4,0.4,0.4,1,0,1.4
		L-64,69.4z"/>
</g>
<g id="XMLID_672_">
	<path id="XMLID_673_" class="st3" d="M-23,85c-7.7,0-14-6.3-14-14s6.3-14,14-14s14,6.3,14,14S-15.3,85-23,85z M-23,59
		c-6.6,0-12,5.4-12,12s5.4,12,12,12s12-5.4,12-12S-16.4,59-23,59z M-15,72h-8c-0.6,0-1-0.4-1-1l0,0v-8c0-0.6,0.4-1,1-1s1,0.4,1,1v7
		h7c0.6,0,1,0.4,1,1l0,0C-14,71.6-14.4,72-15,72z"/>
</g>
<g id="XMLID_772_">
	<path id="XMLID_773_" class="st3" d="M30.4,84.5h-17c-1.7,0-3-1.3-3-3v-21c0-1.7,1.3-3,3-3h17c1.7,0,3,1.3,3,3v21
		C33.4,83.2,32.1,84.5,30.4,84.5z M31.4,59.5h-19v23h19V59.5z M15.4,62.5h12.9c0.6,0,1,0.4,1,1c0,0.6-0.4,1-1,1H15.4
		c-0.6,0-1-0.4-1-1C14.4,63,14.8,62.5,15.4,62.5z M15.4,67.5h12.9c0.6,0,1,0.4,1,1c0,0.6-0.4,1-1,1H15.4c-0.6,0-1-0.4-1-1
		C14.4,67.9,14.8,67.5,15.4,67.5z"/>
</g>
<g id="XMLID_839_">
	<path id="XMLID_840_" class="st3" d="M62,82.5c-3.5,0-13.5-6.9-13.5-15.5c0-0.2,0-0.3,0-0.5h0c0.3-3.9,3.5-7,7.5-7
		c2.5,0,4.6,1.2,6,3c1.4-1.8,3.5-3,6-3c4,0,7.2,3.1,7.5,7h0c0,0.2,0,0.3,0,0.5C75.5,75.6,65.5,82.5,62,82.5z M73.4,66.5
		c-0.3-2.8-2.6-5-5.4-5c-1.9,0-3.5,1-4.5,2.4c0,0-0.5,0.9-1.5,0.9s-1.5-0.9-1.5-0.9c-1-1.4-2.6-2.4-4.5-2.4c-2.9,0-5.2,2.2-5.4,5h0
		c0,0.2,0,0.3,0,0.5c0,7.5,8.5,13.5,11.5,13.5c3,0,11.5-6,11.5-13.5C73.5,66.8,73.5,66.7,73.4,66.5L73.4,66.5z"/>
</g>
<g>
	<path class="st1" d="M-96.1,118.7c1.5,0,2.4,1,2.4,1l21.3,20.4c1.1,0.9,0.3,2.6-1.2,2.6c-0.7,0-1.5,0-1.5,0v0c-1.1,0-2,0.9-2,2v0
		c0,0,0,0,0,0h0v14.1c0,1.9-1.4,3.5-3.2,3.9h-8.8v0c-2.2,0-4-1.8-4-4v-8h0c0,0,0,0,0,0v0c0-1.1-0.9-2-2-2v0h-1v-2h1c2.2,0,4,1.8,4,4
		h0v10h0l0-2h0c0,1.1,0.9,2,2,2h0c0,0,0,0,0,0v0h8v0c1.1,0,2-0.9,2-2v0c0,0,0,0,0,0h0v-14h0c0-2.2,1.8-4,4-4h0.5l-20-19
		c0,0-0.8-0.9-1.6-0.9"/>
</g>
<g id="XMLID_3_">
	<path id="XMLID_4_" class="st1" d="M-96,120.8c-0.7,0-1.6,0.9-1.6,0.9l-20,19h0.5c2.2,0,4,1.8,4,4h0v14h0c0,0,0,0,0,0v0
		c0,1.1,0.9,2,2,2v0h8v0c0,0,0,0,0,0h0c1.1,0,2-0.9,2-2h0l0,2h0v-10h0c0-2.2,1.8-4,4-4h1v2h-1v0c-1.1,0-2,0.9-2,2v0c0,0,0,0,0,0h0v8
		c0,2.2-1.8,4-4,4v0h-8.8c-1.8-0.4-3.2-2-3.2-3.9v-14.1h0c0,0,0,0,0,0v0c0-1.1-0.9-2-2-2v0c0,0-0.9,0-1.5,0c-1.5,0-2.2-1.7-1.2-2.6
		l21.3-20.4c0,0,0.8-1,2.4-1V120.8z"/>
</g>
<path id="XMLID_564_" class="st4" d="M-72.3,232.3L-93.7,212c0,0-0.8-0.9-2.3-1v0h-0.1c0,0,0,0,0,0c-1.5,0-2.3,1-2.3,1l-21.3,20.4
	c-1.1,0.9-0.3,2.7,1.2,2.7c0.7,0,1.5,0,1.5,0l0,0c1.1,0,2,0.9,2,2v0c0,0,0,0,0,0l0,0v14.1c0,1.9,1.4,3.9,3.2,3.9h8.8v0
	c2,0,4-1.8,4-4v-8l0,0c0,0,0,0,0,0v0c0-1.1,0.9-2,2-2l0,0h0.9h0.1h0.9l0,0c1.1,0,2,0.9,2,2v0c0,0,0,0,0,0l0,0v8c0,2.2,2,4,4,4v0h8.7
	c1.8,0,3.3-2,3.3-3.9V237l0,0c0,0,0,0,0,0v0c0-1.1,0.9-2,2-2l0,0c0,0,0.9,0,1.5,0C-72,235-71.3,233.3-72.3,232.3z"/>
<g>
	<path class="st1" d="M14.7,161.6c-0.4,0.4-1,0.4-1.4,0l-7.8-7.8c-0.4-0.4-0.4-1,0-1.4c0.4-0.4,1-0.4,1.4,0l7.8,7.8
		C15,160.6,15,161.2,14.7,161.6z M-9.9,156.1c-10.5,0-19-8.5-19-19c0-10.5,8.5-19,19-19c10.5,0,19,8.5,19,19
		C9.1,147.6,0.5,156.1-9.9,156.1z M-9.9,120.1c-9.4,0-17,7.6-17,17s7.6,17,17,17c9.4,0,17-7.6,17-17S-0.6,120.1-9.9,120.1z"/>
</g>
<path id="XMLID_154_" class="st1" d="M94.4,142.7c4.4-2.1,7.6-6.6,7.6-11.7c0-7.2-5.9-13-12.9-13v2c6,0,11,5,11,11.1
	c0,6.1-5,10.9-11,10.9v2c14,0,18.2,12.8,18.2,14.4c0,1.1-0.4,1.6-1.3,1.6s-17,0-17,0v2c0,0,15.6,0,17,0c1.8,0,3.1-1.2,3.1-3.5
	C109.1,156.9,106.6,146.3,94.4,142.7z"/>
<path id="XMLID_152_" class="st1" d="M83.7,142.7c-4.4-2.1-7.6-6.6-7.6-11.7c0-7.2,5.9-13,12.9-13v2c-6,0-11,5-11,11.1
	c0,6.1,5,10.9,11,10.9v2c-14,0-18.2,12.8-18.2,14.4c0,1.1,0.5,1.6,1.3,1.6s16.9,0,16.9,0v2c0,0-15.4,0-16.9,0
	c-1.8,0-3.1-1.2-3.1-3.5C69,156.9,71.5,146.3,83.7,142.7z"/>
<path id="XMLID_790_" class="st4" d="M94.4,235.7c4.4-2.1,7.6-6.6,7.6-11.7c0-7.2-5.9-13-12.9-13v44c0,0,15.6,0,17,0
	c1.8,0,3.1-1.2,3.1-3.5C109.1,249.9,106.6,239.3,94.4,235.7z"/>
<path id="XMLID_789_" class="st4" d="M83.7,235.7c-4.4-2.1-7.6-6.6-7.6-11.7c0-7.2,5.9-13,12.9-13v44c0,0-15.4,0-16.9,0
	c-1.8,0-3.1-1.2-3.1-3.5C69,249.9,71.5,239.3,83.7,235.7z"/>
<g id="XMLID_656_">
	<path id="XMLID_657_" class="st4" d="M14.4,254.4c-0.8,0.8-2,0.8-2.8,0l-6.1-6.1c-0.8-0.8-0.8-2,0-2.8c0.8-0.8,2-0.8,2.8,0l6.1,6.1
		C15.2,252.4,15.2,253.6,14.4,254.4z M-10,249c-10.5,0-19-8.5-19-19c0-10.5,8.5-19,19-19c10.5,0,19,8.5,19,19
		C9,240.5,0.5,249-10,249z M-10,215c-8.3,0-15,6.7-15,15c0,8.3,6.7,15,15,15c8.3,0,15-6.7,15-15C5,221.7-1.7,215-10,215z"/>
</g>
<g id="XMLID_80_">
	<g id="XMLID_76_">
		<path id="XMLID_191_" class="st5" d="M-110.8,320.4c-8.5,0-15.5-7-15.5-15.5s7-15.5,15.5-15.5h68c8.5,0,15.5,7,15.5,15.5
			s-7,15.5-15.5,15.5H-110.8z"/>
		<path id="XMLID_188_" class="st6" d="M-42.8,289.9c8.2,0,15,6.8,15,15v0c0,8.2-6.7,15-15,15h-68c-8.2,0-15-6.8-15-15v0
			c0-8.2,6.8-15,15-15H-42.8 M-42.8,288.9h-68c-8.8,0-16,7.2-16,16s7.2,16,16,16h68c8.8,0,16-7.2,16-16
			C-26.8,296.1-34,288.9-42.8,288.9L-42.8,288.9z"/>
	</g>
	<g id="XMLID_69_">
		<g id="XMLID_73_">
			<path id="XMLID_87_" class="st7" d="M-113.3,298.8v1.3c1-0.1,3.1-0.1,6.5-0.1v3.5c-4.5,0-7.3,0-8.5-0.1v1.3
				c1.7-0.1,3.9-0.1,6.6-0.1c-1.1,1.7-2.1,3.2-3.3,4.3c-1.1,1.2-2.5,2.2-4.1,3.2c0.6,0.2,1,0.6,1.3,1.2c1.7-1.2,3.1-2.5,4.1-3.7
				c1.1-1.3,2.1-2.9,3.2-4.9h0.7v6c0,1.3-0.1,2.7-0.2,4.1h1.7c-0.1-1.4-0.2-2.8-0.2-4.1v-6h0.4c2.1,3.9,4.5,6.6,7.4,8.2
				c0.3-0.5,0.7-1,1.1-1.3c-2.7-1.1-5.1-3.4-7.3-6.9c2.9,0,5.1,0,6.7,0.1v-1.3c-1.6,0.1-4.4,0.1-8.3,0.1V300c3.3,0,5.4,0,6.2,0.1
				v-1.3c-0.9,0.1-3,0.1-6.2,0.1v-1.2c0-0.6,0-1,0.1-1.2c0-0.2,0.1-0.4,0.3-0.5c0.2-0.1,0.2-0.2,0.2-0.3s-0.1-0.1-0.3-0.1
				c-0.6,0-1.2-0.1-1.7-0.2c0.1,0.8,0.2,2,0.2,3.6C-110.2,298.9-112.4,298.8-113.3,298.8L-113.3,298.8z"/>
			<path id="XMLID_83_" class="st7" d="M-90.8,295.5l-1,0.9c1.2,0.9,2.3,2.1,3.3,3.4l1.1-0.9C-88.4,297.6-89.6,296.5-90.8,295.5
				L-90.8,295.5z M-75.9,314.3c0.4-0.5,0.9-0.9,1.3-1.1c-1.4-1-2.6-2.5-3.7-4.5c-1.1-2-2.1-4.4-2.7-7.1c0.2-1.3,0.2-2.4,0.2-3.2
				c0-0.8,0-1.4,0-1.6c0-0.3,0.1-0.4,0.2-0.5s0.2-0.2,0.2-0.3c0-0.2-0.1-0.3-0.3-0.3c-0.8,0-1.4-0.1-1.7-0.2
				c0.2,1.3,0.3,2.5,0.3,3.8c0,3.1-0.5,5.8-1.4,8.3c-0.9,2.5-2.5,4.5-4.8,6c0.6,0.2,1,0.5,1.3,1c3.2-3.1,5.2-6.7,5.8-10.7
				C-80.1,308.5-78.3,311.9-75.9,314.3L-75.9,314.3z M-89.2,301.2c-0.6,0.1-1.5,0.1-2.4,0.1s-1.8,0-2.5-0.1v1.5
				c0.6-0.2,1.7-0.3,3.2-0.3v7c0,1.3-0.3,2.2-0.9,2.8c0.5,0.3,0.9,0.6,1.1,1c0.5-0.7,1.1-1.3,1.8-1.9l3-2.9
				c-0.3-0.3-0.5-0.7-0.7-1.2c-1,1.2-2,2.2-2.9,2.9v-6.5C-89.6,302.6-89.5,301.8-89.2,301.2L-89.2,301.2z"/>
			<path id="XMLID_74_" class="st7" d="M-70.3,295.3l-0.9,1c1.4,1,2.5,2.2,3.3,3.5l1.1-1.2C-68.2,297.1-69.3,296-70.3,295.3
				L-70.3,295.3z M-60.1,312.4h-3v-9.1c0-0.5,0.1-0.8,0.4-0.9c0.2-0.1,0.2-0.1,0.2-0.2c0-0.1-0.1-0.1-0.3-0.1c-0.6,0-1.3,0-1.8-0.1
				c0.1,0.5,0.2,1.3,0.2,2.4v8c-0.6,0-1.4-0.1-2.4-0.2v1.5c1.2-0.1,3.4-0.2,6.6-0.2c3.2,0,5.6,0.1,7,0.2v-1.5
				c-1.2,0.1-2.3,0.2-3.5,0.2h-2.1v-8.1c2.4,0,3.9,0.1,4.5,0.2v-1.4c-0.7,0.1-2.2,0.2-4.5,0.2v-5.6c2.3,0,3.9,0.1,4.9,0.2v-1.4
				c-1.2,0.1-3.2,0.2-6,0.2c-2.8,0-4.8-0.1-5.9-0.2v1.4c1.1-0.1,3-0.2,5.6-0.2V312.4z M-68.1,302c-0.6,0.1-1.5,0.1-2.5,0.1
				c-1.1,0-1.9,0-2.4-0.1v1.6c0.7-0.3,1.8-0.4,3.3-0.4v7.9c0,0.9-0.3,1.6-1,2.1c0.5,0.3,0.8,0.7,1.1,1.3c0.1-0.2,0.7-0.8,1.6-1.8
				l2.7-2.8c-0.4-0.4-0.7-0.8-0.8-1.3c-0.3,0.7-1.1,1.6-2.3,2.7v-6.8C-68.4,303.4-68.3,302.6-68.1,302L-68.1,302z"/>
		</g>
		<g id="XMLID_60_" class="st8">
			<path id="XMLID_61_" class="st7" d="M-37.7,305.6l-7.6,7.3c-0.4,0.3-0.9,0.3-1.3,0c-0.4-0.3-0.4-0.9,0-1.2l7-6.7l-7-6.7
				c-0.4-0.3-0.4-0.9,0-1.2c0.4-0.3,0.9-0.3,1.3,0l7.6,7.3C-37.4,304.7-37.4,305.2-37.7,305.6z"/>
		</g>
	</g>
</g>
<g id="XMLID_79_">
	<g id="XMLID_97_">
		<path id="XMLID_112_" class="st9" d="M39,319.5c-8.5,0-15.5-7-15.5-15.5s7-15.5,15.5-15.5h68c8.5,0,15.5,7,15.5,15.5
			s-7,15.5-15.5,15.5H39z"/>
		<path id="XMLID_109_" class="st10" d="M107,289c8.2,0,15,6.8,15,15v0c0,8.2-6.8,15-15,15H39c-8.2,0-15-6.8-15-15v0
			c0-8.2,6.8-15,15-15H107 M107,288H39c-8.8,0-16,7.2-16,16c0,8.8,7.2,16,16,16h68c8.8,0,16-7.2,16-16S115.8,288,107,288L107,288z"
			/>
	</g>
	<g id="XMLID_75_" class="st8">
		<path id="XMLID_77_" class="st7" d="M112.1,304.6l-7.6,7.3c-0.4,0.3-0.9,0.3-1.3,0c-0.4-0.3-0.4-0.9,0-1.2l7-6.7l-7-6.7
			c-0.4-0.3-0.4-0.9,0-1.2c0.4-0.3,0.9-0.3,1.3,0l7.6,7.3C112.5,303.7,112.5,304.3,112.1,304.6z"/>
	</g>
	<g id="XMLID_90_">
		<path id="XMLID_187_" class="st7" d="M37.6,302.7c0-0.8,0.1-1.2,0.2-1.3c0.2-0.1,0.3-0.2,0.3-0.3c0-0.2-0.2-0.3-0.6-0.3
			c-0.4,0-0.9-0.1-1.4-0.2c0.1,0.7,0.1,1.7,0.1,3v6.6c0,0.6,0,1,0.1,1.3c0.1,0.3,0.2,0.6,0.5,0.8c0.2,0.2,0.5,0.3,0.9,0.4
			c0.4,0.1,1.3,0.1,2.6,0.1c1.3,0,2.8,0,4.6,0c1.7,0,3,0,3.9-0.1s1.6-0.2,2.2-0.5c0.6-0.3,1-0.6,1.3-1.1s0.5-1.1,0.7-2
			c-0.5,0-1-0.2-1.5-0.5c-0.1,0.8-0.2,1.3-0.5,1.7c-0.2,0.4-0.6,0.6-1.2,0.8c-0.6,0.2-1.6,0.3-3.1,0.3c-1.5,0-2.7,0.1-3.6,0.1
			c-1.7,0-3,0-4-0.1c-0.6,0-0.9-0.2-1.1-0.4c-0.2-0.2-0.3-0.6-0.3-1.2v-6.1h11.5v2.2h1.5c-0.1-0.7-0.2-1.4-0.2-2.3v-6
			c0-0.8,0-1.5,0.1-2C49,296,46.5,296,43,296c-3.5,0-5.9-0.1-7.3-0.3v1.6c1.8-0.1,6.2-0.2,13.3-0.2v5.6H37.6z"/>
		<path id="XMLID_182_" class="st7" d="M59,294.5l-1,0.9c1.2,0.9,2.3,2.1,3.3,3.4l1.1-0.9C61.4,296.7,60.3,295.5,59,294.5L59,294.5z
			 M73.9,313.4c0.4-0.5,0.9-0.9,1.3-1.1c-1.4-1-2.6-2.5-3.7-4.5c-1.1-2-2.1-4.4-2.7-7.1c0.2-1.3,0.2-2.4,0.2-3.2c0-0.8,0-1.4,0-1.6
			c0-0.3,0.1-0.4,0.2-0.5c0.2-0.1,0.2-0.2,0.2-0.3c0-0.2-0.1-0.3-0.3-0.3c-0.8,0-1.4-0.1-1.7-0.2c0.2,1.3,0.3,2.5,0.3,3.8
			c0,3.1-0.5,5.8-1.4,8.3c-0.9,2.5-2.5,4.5-4.8,6c0.6,0.2,1,0.5,1.3,1c3.2-3.1,5.2-6.7,5.8-10.7C69.7,307.5,71.5,311,73.9,313.4
			L73.9,313.4z M60.6,300.2c-0.6,0.1-1.5,0.1-2.4,0.1s-1.8,0-2.5-0.1v1.5c0.6-0.2,1.7-0.3,3.2-0.3v7c0,1.3-0.3,2.2-0.9,2.8
			c0.5,0.3,0.9,0.6,1.1,1c0.5-0.7,1.1-1.3,1.8-1.9l3-2.9c-0.3-0.3-0.5-0.7-0.7-1.2c-1,1.2-2,2.2-2.9,2.9v-6.5
			C60.2,301.7,60.3,300.8,60.6,300.2L60.6,300.2z"/>
		<path id="XMLID_91_" class="st7" d="M79.5,294.3l-0.9,1c1.4,1,2.5,2.2,3.3,3.5l1.1-1.2C81.6,296.1,80.5,295,79.5,294.3L79.5,294.3
			z M89.8,311.5h-3v-9.1c0-0.5,0.1-0.8,0.4-0.9c0.2-0.1,0.2-0.1,0.2-0.2s-0.1-0.1-0.3-0.1c-0.6,0-1.3,0-1.8-0.1
			c0.1,0.5,0.2,1.3,0.2,2.4v8c-0.6,0-1.4-0.1-2.4-0.2v1.5c1.2-0.1,3.4-0.2,6.6-0.2c3.2,0,5.6,0.1,7,0.2v-1.5
			c-1.2,0.1-2.3,0.2-3.5,0.2h-2.1v-8.1c2.4,0,3.9,0.1,4.5,0.2v-1.4c-0.7,0.1-2.2,0.2-4.5,0.2v-5.6c2.3,0,3.9,0.1,4.9,0.2v-1.4
			c-1.2,0.1-3.2,0.2-6,0.2c-2.8,0-4.8-0.1-5.9-0.2v1.4c1.1-0.1,3-0.2,5.6-0.2V311.5z M81.7,301.1c-0.6,0.1-1.5,0.1-2.5,0.1
			c-1.1,0-1.9,0-2.4-0.1v1.6c0.7-0.3,1.8-0.4,3.3-0.4v7.9c0,0.9-0.3,1.6-1,2.1c0.5,0.3,0.8,0.7,1.1,1.3c0.1-0.2,0.7-0.8,1.6-1.8
			l2.7-2.8c-0.4-0.4-0.7-0.8-0.8-1.3c-0.3,0.7-1.1,1.6-2.3,2.7v-6.8C81.4,302.5,81.5,301.6,81.7,301.1L81.7,301.1z"/>
	</g>
</g>
<g id="XMLID_282_">
	<path id="XMLID_269_" class="st0" d="M-28.7,390.8C-28.7,390.8-28.7,390.8-28.7,390.8c1.2,0,2.2,1,2.2,2.2c0,1.2-1,2.2-2.2,2.2
		c-1.2,0-2.2,1-2.2,2.2c0,1.2,1,2.2,2.2,2.2c0,0,0,0,0,0c1.2,0,2.2,1,2.2,2.2c0,1.2-1,2.2-2.2,2.2h-95.6h0c-1.2,0-2.2-1-2.2-2.2
		c0-1.2,1-2.2,2.2-2.2c1.2,0,2.2-1,2.2-2.2c0-1.2-1-2.2-2.2-2.2h0c-1.2,0-2.2-1-2.2-2.2c0-1.2,1-2.2,2.2-2.2c1.2,0,2.2-1,2.2-2.2
		c0-1.2-1-2.2-2.2-2.2h0c-1.2,0-2.2-1-2.2-2.2c0-1.2,1-2.2,2.2-2.2c1.2,0,2.2-1,2.2-2.2c0-1.2-1-2.2-2.2-2.2h0c-1.2,0-2.2-1-2.2-2.2
		c0-1.2,1-2.2,2.2-2.2c1.2,0,2.2-1,2.2-2.2c0-1.2-1-2.2-2.2-2.2h0c-1.2,0-2.2-1-2.2-2.2c0-1.2,1-2.2,2.2-2.2c1.2,0,2.2-1,2.2-2.2
		c0-1.2-1-2.2-2.2-2.2h0c-1.2,0-2.2-1-2.2-2.2c0-1.2,1-2.2,2.2-2.2c1.2,0,2.2-1,2.2-2.2c0-1.2-1-2.2-2.2-2.2h0c-1.2,0-2.2-1-2.2-2.2
		c0-1.2,1-2.2,2.2-2.2l95.6,0l0,0c1.2,0,2.2,1,2.2,2.2c0,1.2-1,2.2-2.2,2.2c-1.2,0-2.2,1-2.2,2.2c0,1.2,1,2.2,2.2,2.2c0,0,0,0,0,0
		c1.2,0,2.2,1,2.2,2.2c0,1.2-1,2.2-2.2,2.2c-1.2,0-2.2,1-2.2,2.2c0,1.2,1,2.2,2.2,2.2c0,0,0,0,0,0c1.2,0,2.2,1,2.2,2.2
		c0,1.2-1,2.2-2.2,2.2c-1.2,0-2.2,1-2.2,2.2c0,1.2,1,2.2,2.2,2.2c0,0,0,0,0,0c1.2,0,2.2,1,2.2,2.2c0,1.2-1,2.2-2.2,2.2
		c-1.2,0-2.2,1-2.2,2.2c0,1.2,1,2.2,2.2,2.2c0,0,0,0,0,0c1.2,0,2.2,1,2.2,2.2c0,1.2-1,2.2-2.2,2.2c-1.2,0-2.2,1-2.2,2.2
		C-30.9,389.8-29.9,390.8-28.7,390.8z"/>
	<g id="XMLID_252_">
		<path id="XMLID_264_" class="st7" d="M-98.6,368.2v-2.3c-1.1,0.2-2.5,0.3-4.4,0.3V362c0-0.9,0.2-1.4,0.5-1.7s0.5-0.5,0.5-0.7
			c0-0.2-0.3-0.3-0.9-0.3c-1.3,0-2.2-0.1-2.8-0.2c0.3,1.4,0.4,3.7,0.5,7.1c-2.2,0-3.9-0.2-5.1-0.3v2.3c1.2-0.2,3-0.3,5.1-0.3v7.6
			c-1.8,0.7-3.6,1.4-5.6,1.8c0.8,0.6,1.3,1.5,1.3,2.7c1.4-0.8,2.9-1.6,4.3-2.4v10c0,0.6-0.1,0.9-0.3,1.1c-0.2,0.2-0.6,0.3-1.1,0.3
			c-0.6,0-1.6-0.2-3.1-0.5c0.5,0.5,0.8,0.9,1,1.2c0.1,0.3,0.2,0.9,0.1,1.5c1.7,0,2.9-0.1,3.7-0.3c0.8-0.2,1.3-0.4,1.5-0.8
			c0.3-0.4,0.4-1,0.4-1.8v-11.9c1.5-0.8,3-1.5,4.4-2.1c-0.2-0.7-0.4-1.5-0.4-2.2c-1.3,0.8-2.6,1.6-4,2.2V368
			C-101.2,368-99.7,368.1-98.6,368.2z"/>
		<path id="XMLID_262_" class="st7" d="M-70.5,361.7l-1.2,1.5c1.9,1.2,3.5,2.6,4.9,4.2l1.4-1.5C-67.1,364.4-68.8,363-70.5,361.7z"/>
		<path id="XMLID_261_" class="st7" d="M-62,360c-1.1,0-1.9-0.1-2.5-0.2c0.2,1.1,0.4,2.9,0.4,5.4v3.6c-2.5,1.5-5.4,2.8-8.7,3.9
			c0.7,0.5,1.3,1.3,1.9,2.4c1.7-1.3,3.9-2.8,6.8-4.5v1c0,2.1-0.1,4-0.3,5.6h2.6c-0.2-1.7-0.3-3.5-0.3-5.6V362c0-0.6,0.1-1,0.4-1.2
			c0.3-0.2,0.4-0.4,0.4-0.5C-61.4,360.1-61.6,360-62,360z"/>
		<path id="XMLID_260_" class="st7" d="M-49.6,363.6h-4.6c0.6-0.9,1-1.4,1.2-1.7c0.3-0.3,0.5-0.5,0.8-0.6s0.4-0.2,0.4-0.4
			c0-0.2-0.1-0.3-0.4-0.4c-0.7-0.1-1.4-0.5-2.2-1c-1.4,4.2-3.7,7.4-6.8,9.4c1,0.3,1.7,0.7,2.1,1.4c1.7-2,3-3.6,3.9-4.9h9.5
			c-1.3,2.7-2.5,4.5-3.7,5.5c-1.5-1.5-3-2.8-4.5-4l-1.5,1.4c1.8,1.3,3.3,2.6,4.5,3.9c-2.1,1.7-4.5,2.7-7.3,3.2
			c0.9,0.6,1.6,1.2,1.9,1.8c3-1.1,5.6-2.5,7.6-4.3c2-1.8,4.1-4.9,6.3-9.5C-44,363.5-46.4,363.6-49.6,363.6z"/>
		<path id="XMLID_259_" class="st7" d="M-53.7,381.5c3.8,0,7.5,0.1,11.2,0.2v-2.2c-2.8,0.2-7.9,0.3-15.2,0.3
			c0.2-1.1,0.5-1.8,0.9-1.9c0.2-0.1,0.3-0.2,0.3-0.4c0-0.3-0.1-0.4-0.4-0.5c-0.6,0-1.4-0.2-2.5-0.5c0,1.5,0,2.6-0.1,3.3
			c-5.4,0-10-0.1-14-0.3v2.2c3.6-0.1,7.4-0.2,11.2-0.2h2.4c-0.7,2-2.1,3.7-4.4,5.1c-2.3,1.4-5.5,2.5-9.6,3.5
			c0.9,0.6,1.4,1.3,1.7,2.2c8.5-2.9,13.3-6.4,14.3-10.7c1.6,2.6,3.5,4.6,5.5,6.1c2.1,1.5,4.9,2.9,8.4,4.3c0.4-1,0.9-1.7,1.6-2.2
			c-6.1-1.4-10.7-4.2-13.8-8.4H-53.7z"/>
		<path id="XMLID_270_" class="st7" d="M-79,370.2c0-1.5,0.4-2.8,0.5-4.1c-0.9,0.2-3.5,0.3-7.5,0.3v-4c0-1-0.4-1.6,0.1-2
			c0.2-0.2,0-0.4,0-0.6c0-0.3-0.3-0.5-0.7-0.5l-1.2,0.1c-0.6,0-1.2-0.1-1.8-0.3c0.2,1.5,0.3,4,0.3,7.4c-4.2,0-6.3-0.1-7.4-0.3
			c0.1,1,0.7,2.4,0.7,4.1v15.8c0,2.3-1.1,4.1-1.3,5.1h3.3v-3h13v3h1.7c-0.1-2,0.3-3.6,0.3-5.8V370.2z M-89,386h-5v-8h5V386z
			 M-89,376h-5v-8h5V376z M-81,386h-5v-8h5V386z M-81,376h-5v-8h5V376z"/>
	</g>
</g>
<g id="XMLID_310_">
	<linearGradient id="XMLID_573_" gradientUnits="userSpaceOnUse" x1="54" y1="475.9932" x2="54" y2="432.0068">
		<stop  offset="0" style="stop-color:#767676"/>
		<stop  offset="1" style="stop-color:#5D5D5D"/>
	</linearGradient>
	<path id="XMLID_311_" class="st11" d="M75.2,467.6l-7.9,7.9c0,0.1-0.1,0.1-0.1,0.2c-0.2,0.2-0.4,0.2-0.6,0.2c0,0-0.1,0-0.1,0
		c0,0-0.1,0-0.1,0c-0.2,0-0.4-0.1-0.6-0.3c-0.1-0.1-0.2-0.2-0.2-0.3l-3.9-4.6c-0.3-0.5-0.3-1.2,0.2-1.5c0.4-0.4,1.1-0.3,1.4,0.2
		l3.4,4l7.2-7.2c0.4-0.4,1-0.4,1.3,0C75.5,466.7,75.5,467.3,75.2,467.6z M65.9,462.4c-0.4,0-0.7-0.2-0.9-0.6l0,0
		c-2.3-3.1-5.6-5.4-9.5-6.3v-0.1c-0.6,0-1-0.5-1-1.1c0-0.6,0.5-1.1,1-1.1v-0.1c3.5-1.5,6-5.1,6-9.2c0-5.5-4.5-10-10-10
		c-5.5,0-10,4.5-10,10c0,4.1,2.5,7.6,6,9.2v0.1c0,0,0.1,0,0.1,0c0.6,0,1.1,0.5,1.1,1.1c0,0.6-0.5,1.1-1.1,1.1c0,0-0.1,0-0.1,0v0.1
		c-5.8,1.4-10.4,5.8-12.1,11.5c0,0,0,0,0,0c-0.2,0-0.7,3-0.7,3l21.9,0c0,0,1,0,1,1s-1,1-1,1l-22,0c-0.2,0-0.3-0.1-0.5-0.1
		c-0.8-0.2-1.4-1-1.4-1.9h0c0,0,0,0,0,0c0,0,0,0,0,0c0-0.2,0-0.3,0.1-0.5c0.9-7.1,5.8-13,12.4-15.4c-3.3-2.1-5.6-5.9-5.6-10.1
		c0-6.6,5.4-12,12-12s12,5.4,12,12c0,4.3-2.2,8-5.6,10.1c8.1,3.8,9,7.3,9,7.3C66.9,461.9,66.4,462.4,65.9,462.4z"/>
</g>
<g id="XMLID_314_">
	<path id="XMLID_315_" class="st4" d="M1.4,471h-5v5c0,0.6-0.4,1-1,1c-0.6,0-1-0.4-1-1v-5h-5c-0.6,0-1-0.4-1-1c0-0.6,0.4-1,1-1h5v-5
		c0-0.6,0.4-1,1-1c0.6,0,1,0.4,1,1v5h5c0.6,0,1,0.4,1,1C2.4,470.5,2,471,1.4,471z M-8.1,461c-0.2,0-0.4-0.1-0.6-0.2l-0.1,0.1
		c-2.1-2.1-4.8-3.6-7.8-4.4v-0.1c-0.6,0-1-0.5-1-1.1c0-0.6,0.5-1.1,1-1.1v-0.1c3.5-1.5,6-5.1,6-9.2c0-5.5-4.5-10-10-10
		c-5.5,0-10,4.5-10,10c0,4.1,2.5,7.6,6,9.2v0.1c0,0,0.1,0,0.1,0c0.6,0,1.1,0.5,1.1,1.1c0,0.6-0.5,1.1-1.1,1.1c0,0-0.1,0-0.1,0v0.1
		c-5.8,1.4-10.4,5.8-12.1,11.5c0,0,0,0,0,0c-0.2,0-0.7,3-0.7,3h21.7c0.1,0,0.1,0,0.2,0c0.6,0,1,0.4,1,1c0,0.6-0.4,1-1,1
		c0,0-0.1,0-0.1,0v0.1h-21.9c-0.2,0-0.3-0.1-0.5-0.1c-0.8-0.2-1.4-1-1.4-1.9h0c0,0,0,0,0,0c0,0,0,0,0,0c0-0.2,0-0.3,0.1-0.5
		c0.9-7.1,5.8-13,12.4-15.4c-3.3-2.1-5.6-5.9-5.6-10.1c0-6.6,5.4-12,12-12c6.6,0,12,5.4,12,12c0,4.3-2.2,8-5.6,10.1
		c2.4,0.9,4.6,2.2,6.4,3.9c0.4,0.1,0.7,0.5,0.7,0.9C-7.1,460.5-7.6,461-8.1,461z"/>
</g>
</svg>
