<?xml version="1.0" encoding="utf-8"?>
<!-- Generator: Adobe Illustrator 19.0.0, SVG Export Plug-In . SVG Version: 6.00 Build 0)  -->
<svg version="1.1" id="图层_1" xmlns="http://www.w3.org/2000/svg" xmlns:xlink="http://www.w3.org/1999/xlink" x="0px" y="0px"
	 viewBox="0 0 48 48" style="enable-background:new 0 0 48 48;" xml:space="preserve">
<style type="text/css">
	.st0{fill:url(#XMLID_2_);}
</style>
<g id="XMLID_310_">
	
		<linearGradient id="XMLID_2_" gradientUnits="userSpaceOnUse" x1="24.5943" y1="2" x2="24.5943" y2="46" gradientTransform="matrix(1 0 0 -1 0 48)">
		<stop  offset="0" style="stop-color:#767676"/>
		<stop  offset="1" style="stop-color:#5D5D5D"/>
	</linearGradient>
	<path id="XMLID_311_" class="st0" d="M45.7,37.7l-7.9,7.9c0,0-0.4,0.4-0.7,0.4c-0.3,0-0.8-0.4-0.8-0.4l-4.2-4.8
		c-0.3-0.5-0.3-1.2,0.2-1.5c0.4-0.4,1.1-0.3,1.4,0.2l3.4,4l7.2-7.2c0.4-0.4,1-0.4,1.3,0C46.1,36.7,46.1,37.3,45.7,37.7z M36.4,32.4
		c-0.4,0-0.7-0.2-0.9-0.6l0,0c-2.3-3.1-5.6-5.4-9.5-6.3c0,0-1-0.3-1-1.2s1-1.2,1-1.2c3.5-1.5,6-5.1,6-9.2c0-5.5-4.5-10-10-10
		s-10,4.5-10,10c0,4.1,2.5,7.6,6,9.2c0,0,1.2,0.3,1.2,1.2S18,25.5,18,25.5C6.9,27.5,5.2,40,5.2,40H27c0,0,1,0,1,1s-1,1-1,1H5
		c-1.8,0-1.8-2-1.8-2v-0.5c0.9-7.1,5.8-13,12.4-15.4C12.2,22,10,18.3,10,14c0-6.6,5.4-12,12-12s12,5.4,12,12c0,4.3-2.2,8-5.6,10.1
		c8.1,3.8,9,7.3,9,7.3C37.4,31.9,37,32.4,36.4,32.4z"/>
</g>
</svg>
