<?xml version="1.0" encoding="utf-8"?>
<!-- Generator: Adobe Illustrator 19.0.0, SVG Export Plug-In . SVG Version: 6.00 Build 0)  -->
<svg version="1.1" id="图层_1" xmlns="http://www.w3.org/2000/svg" xmlns:xlink="http://www.w3.org/1999/xlink" x="0px" y="0px"
	 viewBox="0 0 48 48" style="enable-background:new 0 0 48 48;" xml:space="preserve">
<style type="text/css">
	.st0{fill:#FF8200;}
</style>
<g id="XMLID_314_">
	<path id="XMLID_315_" class="st0" d="M44,40h-5v5c0,0.6-0.4,1-1,1s-1-0.4-1-1v-5h-5c-0.6,0-1-0.4-1-1s0.4-1,1-1h5v-5
		c0-0.6,0.4-1,1-1s1,0.4,1,1v5h5c0.6,0,1,0.4,1,1S44.5,40,44,40z M33.5,29.7c-2.1-2-4.7-3.4-7.6-4.2c0,0-1-0.3-1-1.2s1-1.2,1-1.2
		c3.5-1.5,6-5.1,6-9.2c0-5.5-4.5-10-10-10s-10,4.5-10,10c0,4.1,2.5,7.6,6,9.2c0,0,1.2,0.3,1.2,1.2s-1.2,1.2-1.2,1.2
		C12.2,26.9,7.5,31.3,5.8,37l0,0c-0.2,0-0.7,3-0.7,3h21.7c0.1,0,0.1,0,0.2,0c0.6,0,1,0.4,1,1s-0.4,1-1,1h-0.1l0,0H5
		c-0.2,0-0.3-0.1-0.5-0.1c-0.8-0.2-1.4-1-1.4-1.9l0,0l0,0l0,0c0-0.2,0-0.3,0.1-0.5c0.9-7.1,5.8-13,12.4-15.4C12.2,22,10,18.3,10,14
		c0-6.6,5.4-12,12-12s12,5.4,12,12c0,4.3-2.2,8-5.6,10.1c2.4,0.9,4.6,2.2,6.4,3.9c0,0,0.9,0.9,0.4,1.6C34.7,30.4,33.9,30,33.5,29.7z
		"/>
</g>
</svg>
