<?xml version="1.0" encoding="utf-8"?>
<!-- Generator: Adobe Illustrator 19.0.0, SVG Export Plug-In . SVG Version: 6.00 Build 0)  -->
<svg version="1.1" id="图层_1" xmlns="http://www.w3.org/2000/svg" xmlns:xlink="http://www.w3.org/1999/xlink" x="0px" y="0px"
	 viewBox="-8 -4 60 60" style="enable-background:new -8 -4 60 60;" xml:space="preserve">
<style type="text/css">
	.st0{fill:#707070;}
</style>
<path id="XMLID_373_" class="st0" d="M37,38c-2.3,0-4.3,1.1-5.5,2.7l-12.2-7c0.5-1.1,0.7-2.4,0.7-3.7s-0.3-2.6-0.7-3.7l12.2-7
	C32.8,21,34.8,22,37,22c3.9,0,7-3.1,7-7s-3.1-7-7-7s-7,3.1-7,7c0,0.9,0.2,1.7,0.5,2.5l-12.1,7C16.6,21.8,13.5,20,10,20
	C4.5,20,0,24.5,0,30s4.5,10,10,10c3.5,0,6.6-1.8,8.4-4.5l12.1,7C30.2,43.3,30,44.1,30,45c0,3.9,3.1,7,7,7s7-3.1,7-7S40.9,38,37,38z
	 M37,10c2.8,0,5,2.2,5,5s-2.2,5-5,5s-5-2.2-5-5S34.2,10,37,10z M10,38c-4.4,0-8-3.6-8-8s3.6-8,8-8s8,3.6,8,8S14.4,38,10,38z M37,50
	c-2.8,0-5-2.2-5-5s2.2-5,5-5s5,2.2,5,5S39.8,50,37,50z"/>
</svg>
