<?xml version="1.0" encoding="utf-8"?>
<!-- Generator: Adobe Illustrator 19.0.0, SVG Export Plug-In . SVG Version: 6.00 Build 0)  -->
<svg version="1.1" id="图层_1" xmlns="http://www.w3.org/2000/svg" xmlns:xlink="http://www.w3.org/1999/xlink" x="0px" y="0px"
	 viewBox="-8 -4 60 60" style="enable-background:new -8 -4 60 60;" xml:space="preserve">
<style type="text/css">
	.st0{fill:#707070;}
</style>
<g id="XMLID_265_">
	<path id="XMLID_266_" class="st0" d="M44,24c0,13.8-16.1,25-22,25C17.1,49,0,37.8,0,24c0-0.8,0-1.4,0-1.5C0,16.2,5.1,11,11.5,11
		c4.7,0,8.7,2.8,10.5,6.8c1.8-4,5.8-6.8,10.5-6.8C38.9,11,44,16.2,44,22.5C44,22.7,44,23.3,44,24z M32.5,13c-5.6,0-8.4,5-8.4,5
		s-0.7,1.6-2.1,1.6S19.9,18,19.9,18s-2.9-5-8.4-5C6.3,13,2,16.3,2,23.5C2,35.9,17.5,47,22,47c5.4,0,20-11.1,20-23.5
		C42,16.1,37.7,13,32.5,13z"/>
</g>
</svg>
