<?xml version="1.0" encoding="utf-8"?>
<!-- Generator: Adobe Illustrator 19.0.0, SVG Export Plug-In . SVG Version: 6.00 Build 0)  -->
<svg version="1.1" id="图层_1" xmlns="http://www.w3.org/2000/svg" xmlns:xlink="http://www.w3.org/1999/xlink" x="0px" y="0px"
	 viewBox="0 0 28 28" style="enable-background:new 0 0 28 28;" xml:space="preserve">
<style type="text/css">
	.st0{fill:#929292;}
</style>
<path id="XMLID_513_" class="st0" d="M20.1,15.9C21.9,14.2,23,12,23,9.4c0-5-4-9-9-9s-9,4-9,9c0,2.6,1.1,4.9,3,6.5
	c-3.4,2-5.7,5.6-5.9,9.7c0,1.9,1,2.4,3,2.4h9h9c1.9,0,3-0.5,3-2.4C25.8,21.4,23.5,17.9,20.1,15.9z M14,26H4c0-6,5.3-8.9,5.3-8.9
	s0.9-0.4,0.9-1.3s-0.9-1.4-0.9-1.4S7,13,7,9.4c0-3.9,3-7,7-7s7,3.1,7,7c0,3.7-2.3,5.1-2.3,5.1s-0.9,0.5-0.9,1.4s0.9,1.3,0.9,1.3
	S24,20,24,26H14z"/>
</svg>
