<?xml version="1.0" encoding="utf-8"?>
<!-- Generator: Adobe Illustrator 19.0.0, SVG Export Plug-In . SVG Version: 6.00 Build 0)  -->
<svg version="1.1" id="图层_1" xmlns="http://www.w3.org/2000/svg" xmlns:xlink="http://www.w3.org/1999/xlink" x="0px" y="0px"
	 viewBox="6 -6 60 60" style="enable-background:new 6 -6 60 60;" xml:space="preserve">
<style type="text/css">
	.st0{fill:#FF8200;}
</style>
<g id="XMLID_656_">
	<path id="XMLID_657_" class="st0" d="M57.4,49.4c-0.8,0.8-2,0.8-2.8,0l-6.1-6.1c-0.8-0.8-0.8-2,0-2.8s2-0.8,2.8,0l6.1,6.1
		C58.2,47.4,58.2,48.6,57.4,49.4z M33,44c-10.5,0-19-8.5-19-19S22.5,6,33,6s19,8.5,19,19S43.5,44,33,44z M33,10c-8.3,0-15,6.7-15,15
		s6.7,15,15,15s15-6.7,15-15S41.3,10,33,10z"/>
</g>
</svg>
