<?xml version="1.0" encoding="utf-8"?>
<!-- Generator: Adobe Illustrator 19.0.0, SVG Export Plug-In . SVG Version: 6.00 Build 0)  -->
<svg version="1.1" id="图层_1" xmlns="http://www.w3.org/2000/svg" xmlns:xlink="http://www.w3.org/1999/xlink" x="0px" y="0px"
	 viewBox="6 -6 60 60" style="enable-background:new 6 -6 60 60;" xml:space="preserve">
<style type="text/css">
	.st0{fill:#707070;}
</style>
<g id="XMLID_106_">
	<path id="XMLID_107_" class="st0" d="M57.7,49.6c-0.4,0.4-1,0.4-1.4,0l-7.8-7.8c-0.4-0.4-0.4-1,0-1.4s1-0.4,1.4,0l7.8,7.8
		C58,48.6,58,49.2,57.7,49.6z M33.1,44.1c-10.5,0-19-8.5-19-19s8.5-19,19-19s19,8.5,19,19S43.5,44.1,33.1,44.1z M33.1,8.1
		c-9.4,0-17,7.6-17,17s7.6,17,17,17s17-7.6,17-17S42.4,8.1,33.1,8.1z"/>
</g>
</svg>
