<?xml version="1.0" encoding="utf-8"?>
<!-- Generator: Adobe Illustrator 19.0.0, SVG Export Plug-In . SVG Version: 6.00 Build 0)  -->
<svg version="1.1" id="图层_1" xmlns="http://www.w3.org/2000/svg" xmlns:xlink="http://www.w3.org/1999/xlink" x="0px" y="0px"
	 viewBox="0 0 28 28" style="enable-background:new 0 0 28 28;" xml:space="preserve">
<style type="text/css">
	.st0{fill-rule:evenodd;clip-rule:evenodd;fill:#929292;}
</style>
<g id="XMLID_672_">
	<path id="XMLID_673_" class="st0" d="M14,28C6.3,28,0,21.7,0,14S6.3,0,14,0s14,6.3,14,14S21.7,28,14,28z M14,2C7.4,2,2,7.4,2,14
		s5.4,12,12,12s12-5.4,12-12S20.6,2,14,2z M22,15h-8c-0.6,0-1-0.4-1-1l0,0V6c0-0.6,0.4-1,1-1c0.6,0,1,0.4,1,1v7h7c0.6,0,1,0.4,1,1
		l0,0C23,14.6,22.6,15,22,15z"/>
</g>
</svg>
